<svg width="81" height="77" viewBox="0 0 81 77" fill="none" xmlns="http://www.w3.org/2000/svg">
<path id="Vector" d="M78.089 12.8907C78.089 12.885 78.0854 12.88 78.08 12.8782L41.4921 0.763876C40.866 0.556572 40.1891 0.556572 39.5631 0.763876L2.96612 12.8812C2.35886 13.0823 1.83069 13.4681 1.45644 13.9839C1.08218 14.4997 0.880812 15.1195 0.880859 15.7553V46.0487C0.880859 46.8521 1.20217 47.6226 1.77411 48.1907C2.34605 48.7588 3.12176 49.078 3.93061 49.078C4.73945 49.078 5.51516 48.7588 6.0871 48.1907C6.65904 47.6226 6.98035 46.8521 6.98035 46.0487V26.9895C6.98035 23.5272 10.3684 21.0796 13.6554 22.1673V22.1673C16.7781 23.2006 18.0789 26.9125 17.1386 30.0644C15.9441 34.0683 15.8008 38.3477 16.7774 42.4843C17.1642 44.1223 17.7182 45.7028 18.4242 47.2044C20.8824 52.4333 20.0755 61.0818 15.9262 65.1027C13.9325 67.0347 12.1213 69.2262 10.5257 71.6579C10.3001 71.991 10.1433 72.3653 10.0646 72.7591C9.98594 73.1529 9.98682 73.5583 10.0672 73.9517C10.1477 74.3451 10.306 74.7188 10.5331 75.0509C10.7601 75.383 11.0514 75.667 11.3899 75.8863C11.7284 76.1056 12.1075 76.2559 12.505 76.3285C12.9025 76.401 13.3106 76.3943 13.7055 76.3088C14.1004 76.2233 14.4742 76.0607 14.8053 75.8304C15.1364 75.6002 15.4181 75.3068 15.634 74.9675C21.379 66.2127 30.452 61.1953 40.5276 61.1953C50.6032 61.1953 59.6762 66.2127 65.4211 74.9675C65.8684 75.6278 66.5594 76.0868 67.3447 76.2452C68.13 76.4035 68.9464 76.2485 69.6176 75.8137C70.2887 75.3789 70.7606 74.6992 70.9312 73.9215C71.1019 73.1438 70.9576 72.3307 70.5295 71.6579C68.9298 69.22 67.1104 67.0236 65.1079 65.088C60.957 61.0758 60.1554 52.4478 62.6152 47.2251C63.3242 45.7198 63.8805 44.1351 64.2685 42.4925C65.0546 39.165 65.1159 35.745 64.4883 32.4501C63.6404 27.9992 65.4099 22.8445 69.7114 21.4209L78.089 18.6483C78.6964 18.4474 79.2247 18.0616 79.5991 17.5458C79.9735 17.0299 80.175 16.4101 80.175 15.7742C80.175 15.1383 79.9735 14.5185 79.5991 14.0027C79.2266 13.4894 78.7016 13.1049 78.098 12.9031C78.0927 12.9013 78.089 12.8963 78.089 12.8907V12.8907ZM58.8261 36.9607C58.8269 39.8342 58.1418 42.667 56.827 45.2266C55.5122 47.7862 53.6052 49.9997 51.2624 51.6855C48.9196 53.3712 46.2079 54.4812 43.3496 54.9244C40.4913 55.3675 37.5679 55.1312 34.8194 54.2348C32.0709 53.3384 29.5754 51.8075 27.5379 49.7676C25.5004 47.7278 23.9788 45.2371 23.0979 42.5C22.2171 39.7629 22.0021 36.8574 22.4707 34.0218C22.6634 32.8559 22.9693 31.7156 23.382 30.616C24.4432 27.7891 27.73 26.8266 30.5974 27.7729L39.5631 30.7316C40.1891 30.9389 40.866 30.9389 41.4921 30.7316L50.4616 27.7716C53.3271 26.826 56.6122 27.7864 57.6736 30.6111C58.4321 32.6297 58.8271 34.7791 58.8261 36.9607Z" fill="#AEAEAE"/>
</svg>
