<svg width="49" height="67" viewBox="0 0 49 67" fill="none" xmlns="http://www.w3.org/2000/svg">
<path fill-rule="evenodd" clip-rule="evenodd" d="M22.6622 17.1278C28.0212 17.1278 32.3654 13.9483 32.3654 10.0262C32.3654 6.10416 28.0212 2.92468 22.6622 2.92468C17.3033 2.92468 12.959 6.10416 12.959 10.0262C12.959 13.9483 17.3033 17.1278 22.6622 17.1278ZM22.6618 15.6663C26.9174 15.6663 30.3673 13.1414 30.3673 10.0268C30.3673 6.91223 26.9174 4.38735 22.6618 4.38735C18.4062 4.38735 14.9563 6.91223 14.9563 10.0268C14.9563 13.1414 18.4062 15.6663 22.6618 15.6663Z" fill="white"/>
<rect x="7.23535" y="1.0166" width="32.0207" height="5.59091" rx="2" fill="white"/>
<path d="M12.1774 9.79849C10.4677 8.73693 11.22 6.09937 13.2324 6.09937H32.942C34.9786 6.09937 35.7121 8.78809 33.9576 9.82231L29.5341 12.4298C29.2264 12.6111 28.8757 12.7068 28.5185 12.7068H17.4319C17.0591 12.7068 16.6937 12.6026 16.3769 12.4059L12.1774 9.79849Z" fill="white"/>
<path d="M19.9424 15.7566H20.9589V17.9635C20.9589 17.9635 20.9589 18.2979 20.5523 18.2979C20.1457 18.2979 19.9424 18.2979 19.9424 18.2979V15.7566Z" fill="white"/>
<path d="M26.042 15.7566H25.0255V17.9635C25.0255 17.9635 25.0255 18.2979 25.4321 18.2979C25.8387 18.2979 26.042 18.2979 26.042 18.2979V15.7566Z" fill="white"/>
<rect x="3.67773" width="40.1529" height="2.03306" rx="1.01653" fill="white"/>
<circle cx="24.2627" cy="41.9316" r="24.1426" fill="white"/>
<path fill-rule="evenodd" clip-rule="evenodd" d="M45.7378 41.933C45.7378 53.7933 36.1232 63.4079 24.263 63.4079C12.4027 63.4079 2.78809 53.7933 2.78809 41.933C2.78809 30.0728 12.4027 20.4581 24.263 20.4581C36.1232 20.4581 45.7378 30.0728 45.7378 41.933ZM42.67 41.8674C42.67 52.0702 34.399 60.3411 24.1962 60.3411C13.9935 60.3411 5.72252 52.0702 5.72252 41.8674C5.72252 31.6646 13.9935 23.3937 24.1962 23.3937C34.399 23.3937 42.67 31.6646 42.67 41.8674ZM22.9723 30.6638C22.9891 30.6102 22.9981 30.5531 22.9981 30.494C22.9981 30.1808 22.7442 29.9269 22.431 29.9269C22.1178 29.9269 21.8639 30.1808 21.8639 30.494C21.8639 30.5531 21.8729 30.6101 21.8897 30.6636C21.6454 30.8345 21.4857 31.1179 21.4857 31.4386C21.4857 31.7869 21.674 32.0912 21.9544 32.2551L21.9208 33.3883L21.8646 33.3763H18.3201C17.7908 33.3763 17.0283 34.3215 16.7133 34.7941L14.6338 34.9358L15.2482 35.7865L16.7133 35.881C16.8078 35.7865 17.1197 35.4368 17.6112 34.7941C18.1027 34.1513 18.7927 34.0852 19.0763 34.1324C19.757 34.2072 20.8271 34.3325 21.8887 34.4717L21.599 44.2475C21.5269 44.3724 21.4857 44.5174 21.4857 44.6721C21.4857 45.0427 21.7227 45.358 22.0535 45.4746V45.7687C21.885 45.8547 21.7696 46.0299 21.7696 46.232C21.7696 46.3826 21.8335 46.5181 21.9358 46.6131C21.6173 46.7224 21.3914 46.9971 21.3914 47.3187C21.3914 47.6156 21.5838 47.8725 21.8639 47.9963V48.7836C21.8045 48.8374 21.7696 48.9029 21.7696 48.9737C21.7696 49.0443 21.8044 49.1098 21.8637 49.1636C21.6105 49.2335 21.429 49.3715 21.3965 49.5344C20.193 49.6651 19.3126 50.0833 19.3126 50.5791C19.3126 51.1795 20.6033 51.6661 22.1955 51.6661C23.7876 51.6661 25.0783 51.1795 25.0783 50.5791C25.0783 50.0965 24.244 49.6873 23.0895 49.5454C23.0665 49.3989 22.9231 49.2715 22.7146 49.1939V49.1641C22.7742 49.1103 22.8093 49.0446 22.8093 48.9737C22.8093 48.9028 22.7742 48.8371 22.7146 48.7832V47.9476C22.9426 47.812 23.0927 47.5809 23.0927 47.3187C23.0927 47.0196 22.8973 46.761 22.6137 46.6384C22.7329 46.5431 22.8093 46.3965 22.8093 46.232C22.8093 46.0302 22.6942 45.8552 22.5261 45.7691V45.5015C22.9046 45.4153 23.187 45.0767 23.187 44.6721C23.187 44.569 23.1687 44.4702 23.1351 44.3788L23.0267 34.6278C23.7702 34.735 24.4293 34.8427 24.842 34.9358C26.014 35.2005 26.37 35.9913 26.4016 36.3536L27.2995 36.5899L27.0159 37.3934L25.7872 42.8755L25.7916 42.8772H24.8887L25.7393 44.484H30.04L30.5598 42.8772H26.4539L27.583 37.8187L29.4262 42.8755H30.1823L28.1029 37.2043C28.3077 37.0468 28.7645 36.7034 28.9536 36.5899C29.1426 36.4765 28.8748 36.3851 28.7173 36.3536H28.1029C28.0084 36.3536 27.7154 36.2875 27.2995 36.0228C26.9836 35.8218 26.9818 35.8127 26.9654 35.7305C26.9548 35.6775 26.9382 35.5939 26.8269 35.4084C26.6 35.0304 25.7872 34.4002 25.4091 34.1324L23.0156 33.6218L22.9997 32.1936C23.2283 32.0211 23.3761 31.7471 23.3761 31.4386C23.3761 31.118 23.2164 30.8347 22.9723 30.6638ZM13.741 42.6866H14.8291L15.6263 36.3536L15.3606 42.6866H17.7148L15.7681 36.4482L15.8626 36.0228L18.2524 42.6866H18.4618L17.9419 44.2935H13.6412L12.7906 42.6866H13.2351L15.6263 35.881L13.741 42.6866ZM30.4935 45.0847C29.852 45.8373 29.9421 46.9674 30.6947 47.6089C31.4473 48.2503 32.5774 48.1602 33.2189 47.4076L34.1456 46.3203C34.172 46.4053 34.2237 46.4833 34.299 46.5419L38.9805 50.1882C39.2449 50.3941 39.6268 50.3432 39.8279 50.0752C40.0311 49.8045 39.9699 49.4193 39.6928 49.225L34.8347 45.8175C34.7747 45.7754 34.7079 45.75 34.64 45.7403L35.2633 45.009C35.9047 44.2564 35.8146 43.1262 35.062 42.4848C34.3094 41.8433 33.1793 41.9335 32.5378 42.6861L30.4935 45.0847Z" fill="#E0E0E0"/>
</svg>
