<svg width="47" height="70" viewBox="0 0 47 70" fill="none" xmlns="http://www.w3.org/2000/svg">
<circle cx="22.767" cy="50.2329" r="15.0698" fill="#D9D9D9"/>
<circle cx="23.5209" cy="46.4651" r="22.8558" fill="white"/>
<path fill-rule="evenodd" clip-rule="evenodd" d="M4.68359 1.25581C4.68359 0.562247 5.24584 0 5.93941 0H43.1115C43.8051 0 44.3673 0.562247 44.3673 1.25581C44.3673 1.94938 43.8051 2.51163 43.1115 2.51163H40.6236C40.1601 2.51163 39.8467 3.04344 39.8467 3.50696V7.04184C39.8467 8.14641 38.9513 9.04184 37.8467 9.04184C37.4567 9.04184 37.197 9.48027 37.2331 9.8686C37.2899 10.4797 37.0713 11.1225 36.5025 11.5868L33.6408 13.9224C33.2263 14.2607 32.9747 14.7532 32.8781 15.2794C32.3055 18.3991 30.2233 20.9907 27.4168 22.269C27.0778 22.4234 26.8457 22.7533 26.8457 23.1258V23.3136C26.8457 23.7049 26.5285 24.0221 26.1372 24.0221C25.6649 24.0221 25.6649 23.6077 25.6649 23.6077C25.6649 23.2307 25.3127 22.9531 24.9403 23.0114C24.4534 23.0875 23.9543 23.1271 23.4461 23.1271C23.0777 23.1271 22.7142 23.1063 22.3567 23.0659C22.0286 23.0288 21.7297 23.2776 21.7297 23.6077C21.7297 23.6077 21.7297 24.0221 21.2573 24.0221C20.866 24.0221 20.5488 23.7049 20.5488 23.3136V23.2483C20.5488 22.911 20.3288 22.6154 20.0138 22.4946C16.7455 21.2415 14.3376 18.251 13.9205 14.6537C13.8553 14.0909 13.6137 13.555 13.1841 13.1857L11.286 11.5539C10.6799 11.0329 10.4937 10.3081 10.6264 9.65192C10.6842 9.36567 10.4922 9.04184 10.2002 9.04184C9.09563 9.04184 8.2002 8.14641 8.2002 7.04184V3.50696C8.2002 3.04344 7.88679 2.51163 7.42328 2.51163H5.93941C5.24584 2.51163 4.68359 1.94938 4.68359 1.25581ZM21.7663 20.9663C21.7448 20.9614 21.7297 20.9423 21.7297 20.9204C21.7297 20.8943 21.7085 20.8732 21.6825 20.8732H21.4365C21.4099 20.8732 21.3834 20.8696 21.3578 20.8623C19.2946 20.2755 17.5885 18.8407 16.6402 16.9586C16.4675 16.6157 16.8596 16.3455 17.1507 16.5958C17.5135 16.9077 17.9761 17.0792 18.4545 17.0792H29.0604C29.5213 17.0792 29.968 16.92 30.325 16.6286C30.3577 16.602 30.4034 16.6367 30.386 16.6751C29.1902 19.3153 26.5323 21.152 23.4453 21.152C22.8684 21.152 22.3065 21.0878 21.7663 20.9663Z" fill="white"/>
</svg>
