<svg width="61" height="11" viewBox="0 0 61 11" fill="none" xmlns="http://www.w3.org/2000/svg">
<path fill-rule="evenodd" clip-rule="evenodd" d="M6.2767 0.708347C5.98872 -0.236116 4.65163 -0.236116 4.36365 0.708347L3.82624 2.47087C3.69793 2.89169 3.30966 3.17922 2.86972 3.17922L1.00196 3.17922C0.048687 3.17922 -0.363993 4.38635 0.389771 4.96993L2.00791 6.22273C2.33632 6.477 2.47338 6.9078 2.35224 7.30509L1.76032 9.24639C1.47596 10.179 2.55809 10.9256 3.32904 10.3288L4.70799 9.26113C5.06841 8.98208 5.57194 8.98208 5.93236 9.26113L7.31132 10.3288C8.08226 10.9256 9.16439 10.179 8.88003 9.24639L8.28811 7.30509C8.16697 6.9078 8.30403 6.477 8.63244 6.22273L10.2506 4.96993C11.0043 4.38635 10.5917 3.17922 9.63839 3.17922L7.77063 3.17922C7.33069 3.17922 6.94242 2.89169 6.81411 2.47087L6.2767 0.708347ZM22.7923 0.708347C22.5043 -0.236116 21.1673 -0.236116 20.8793 0.708347L20.3419 2.47087C20.2136 2.89169 19.8253 3.17922 19.3853 3.17922L17.5176 3.17922C16.5643 3.17922 16.1516 4.38635 16.9054 4.96993L18.5235 6.22273C18.8519 6.477 18.989 6.9078 18.8679 7.30509L18.2759 9.24639C17.9916 10.179 19.0737 10.9256 19.8447 10.3288L21.2236 9.26113C21.584 8.98208 22.0876 8.98208 22.448 9.26113L23.8269 10.3288C24.5979 10.9256 25.68 10.179 25.3957 9.24639L24.8037 7.30509C24.6826 6.9078 24.8197 6.477 25.1481 6.22273L26.7662 4.96993C27.52 4.38635 27.1073 3.17922 26.154 3.17922L24.2863 3.17922C23.8463 3.17922 23.458 2.89169 23.3297 2.47087L22.7923 0.708347ZM37.3949 0.708347C37.6829 -0.236116 39.02 -0.236116 39.3079 0.708347L39.8454 2.47087C39.9737 2.89169 40.3619 3.17922 40.8019 3.17922L42.6696 3.17922C43.6229 3.17922 44.0356 4.38635 43.2818 4.96993L41.6637 6.22273C41.3353 6.477 41.1982 6.9078 41.3194 7.30509L41.9113 9.24639C42.1956 10.179 41.1135 10.9256 40.3426 10.3288L38.9636 9.26113C38.6032 8.98208 38.0997 8.98208 37.7392 9.26113L36.3603 10.3288C35.5893 10.9256 34.5072 10.179 34.7916 9.24639L35.3835 7.30509C35.5046 6.9078 35.3676 6.477 35.0392 6.22273L33.421 4.96993C32.6673 4.38635 33.0799 3.17922 34.0332 3.17922L35.901 3.17922C36.3409 3.17922 36.7292 2.89169 36.8575 2.47087L37.3949 0.708347ZM55.8236 0.708347C55.5356 -0.236116 54.1985 -0.236116 53.9105 0.708347L53.3731 2.47087C53.2448 2.89169 52.8565 3.17922 52.4166 3.17922L50.5488 3.17922C49.5956 3.17922 49.1829 4.38635 49.9366 4.96993L51.5548 6.22273C51.8832 6.477 52.0203 6.9078 51.8991 7.30509L51.3072 9.24639C51.0228 10.179 52.105 10.9256 52.8759 10.3288L54.2549 9.26113C54.6153 8.98208 55.1188 8.98208 55.4792 9.26113L56.8582 10.3288C57.6291 10.9256 58.7113 10.179 58.4269 9.24639L57.835 7.30509C57.7138 6.9078 57.8509 6.477 58.1793 6.22273L59.7975 4.96993C60.5512 4.38635 60.1385 3.17922 59.1853 3.17922L57.3175 3.17922C56.8776 3.17922 56.4893 2.89169 56.361 2.47087L55.8236 0.708347Z" fill="white"/>
</svg>
