<svg width="53" height="48" viewBox="0 0 53 48" fill="none" xmlns="http://www.w3.org/2000/svg">
<path d="M2.94293 24.0812L6.7661 26.2286L25.7483 29.5438L29.0516 34.6929C28.0299 35.8518 27.4525 37.3349 27.421 38.8809C27.3896 40.4269 27.9061 41.9367 28.8797 43.1443C29.8532 44.3519 31.2214 45.1798 32.7431 45.4823C34.2648 45.7848 35.8425 45.5424 37.1982 44.7979C38.554 44.0533 39.6008 42.8543 40.1544 41.4121C40.7079 39.9699 40.7327 38.3769 40.2243 36.9139C39.7159 35.4508 38.707 34.2115 37.3752 33.4142C36.0434 32.6168 34.4742 32.3127 32.944 32.5553L30.1985 27.7058L32.5152 25.1555L37.1824 24.9868C37.7735 26.4232 38.8569 27.605 40.2387 28.3208C41.6204 29.0367 43.2104 29.2397 44.7241 28.8937C46.2378 28.5477 47.5764 27.6752 48.5005 26.4324C49.4245 25.1895 49.8736 23.6574 49.7674 22.1102C49.6612 20.563 49.0067 19.1016 47.9209 17.9876C46.8352 16.8737 45.3891 16.1798 43.8413 16.0301C42.2936 15.8804 40.7453 16.2848 39.4735 17.1708C38.2016 18.0568 37.2893 19.3666 36.8996 20.8659L4.36753 21.5449L2.94293 24.0812ZM35.7817 35.8528C36.4118 36.2067 36.9234 36.7386 37.2516 37.3813C37.5799 38.0239 37.7101 38.7485 37.6259 39.4632C37.5416 40.178 37.2467 40.8509 36.7783 41.3968C36.3099 41.9428 35.6892 42.3373 34.9946 42.5304C34.3 42.7236 33.5627 42.7067 32.876 42.4819C32.1893 42.2571 31.5839 41.8345 31.1365 41.2675C30.6892 40.7006 30.4198 40.0148 30.3626 39.2967C30.3053 38.5787 30.4628 37.8608 30.815 37.2338C31.0488 36.8174 31.3628 36.4514 31.739 36.1567C32.1151 35.862 32.5461 35.6443 33.0073 35.5161C33.4685 35.3878 33.9509 35.3516 34.4269 35.4093C34.903 35.4671 35.3633 35.6178 35.7817 35.8528ZM45.0416 19.3665C45.6717 19.7204 46.1832 20.2524 46.5115 20.895C46.8398 21.5377 46.97 22.2622 46.8857 22.9769C46.8015 23.6917 46.5065 24.3646 46.0382 24.9106C45.5698 25.4565 44.9491 25.851 44.2545 26.0441C43.5599 26.2373 42.8226 26.2204 42.1359 25.9956C41.4491 25.7708 40.8438 25.3482 40.3964 24.7813C39.949 24.2143 39.6797 23.5285 39.6225 22.8105C39.5652 22.0925 39.7227 21.3745 40.0749 20.7475C40.5471 19.9066 41.3357 19.2888 42.2672 19.0298C43.1986 18.7708 44.1966 18.8919 45.0416 19.3665ZM26.5242 23.9801C26.7762 24.1217 26.9809 24.3344 27.1122 24.5915C27.2435 24.8486 27.2956 25.1384 27.2619 25.4243C27.2282 25.7102 27.1102 25.9793 26.9228 26.1977C26.7355 26.4161 26.4872 26.5739 26.2093 26.6512C25.9315 26.7284 25.6366 26.7217 25.3619 26.6317C25.0872 26.5418 24.8451 26.3728 24.6661 26.146C24.4872 25.9192 24.3794 25.6449 24.3565 25.3577C24.3336 25.0705 24.3966 24.7833 24.5375 24.5325C24.7264 24.1962 25.0419 23.949 25.4144 23.8454C25.787 23.7418 26.1862 23.7903 26.5242 23.9801Z" fill="black"/>
<path d="M19.4255 20.0262L28.2465 19.8702L17.3293 7.37945L13.5247 5.24248L12.0746 7.82229L19.4255 20.0262Z" fill="black"/>
</svg>
