<svg width="111" height="108" viewBox="0 0 111 108" fill="none" xmlns="http://www.w3.org/2000/svg">
<path d="M79.2857 57.9512C75.2333 54.2634 71.2902 50.6406 67.4563 47.0827C63.6224 43.5249 60.2307 40.0355 57.2813 36.6146C54.3319 33.1902 51.9762 29.8765 50.2143 26.6734C48.4524 23.4702 47.5714 20.3742 47.5714 17.3854C47.5714 12.4683 49.2452 8.34146 52.5929 5.00488C55.9405 1.66829 60.081 0 65.0143 0C67.8333 0 70.4762 0.593561 72.9429 1.78068C75.4095 2.96781 77.5238 4.56937 79.2857 6.58537C81.0476 4.56585 83.1619 2.96429 85.6286 1.78068C88.0952 0.597073 90.7381 0.0035122 93.5571 0C98.4905 0 102.631 1.66829 105.979 5.00488C109.326 8.34146 111 12.4683 111 17.3854C111 20.3707 110.119 23.4667 108.357 26.6734C106.595 29.88 104.24 33.1938 101.29 36.6146C98.3372 40.039 94.9667 43.5301 91.1786 47.088C87.3905 50.6459 83.4262 54.2669 79.2857 57.9512ZM68.7143 108L31.7143 97.7268V47.4146H42.0214L74.7929 59.5317C77.7 60.5854 80.0557 62.4293 81.8599 65.0634C83.664 67.6976 84.5679 70.5951 84.5714 73.7561H74C70.3 73.7561 67.3929 73.6244 65.2786 73.361C63.1643 73.0976 61.3143 72.7024 59.7286 72.1756L49.1571 68.7512L47.5714 73.7561L55.8964 76.7854C58.3631 77.7512 60.6095 78.3659 62.6357 78.6293C64.6619 78.8927 67.0405 79.0244 69.7714 79.0244H95.1429C100.957 79.0244 105.054 79.9674 107.432 81.8535C109.811 83.7395 111 86.3087 111 89.561V94.8293L68.7143 108ZM0 105.366V47.4146H21.1429V105.366H0Z" fill="#979797" fill-opacity="0.5"/>
</svg>
