<svg width="118" height="108" viewBox="0 0 118 108" fill="none" xmlns="http://www.w3.org/2000/svg">
<path d="M43.2309 0.000220692C33.0936 -0.0535909 23.2245 9.74011 27.73 21.9015H10.7273C7.88222 21.9015 5.1537 23.0354 3.14195 25.0537C1.13019 27.0721 0 29.8095 0 32.6638V43.4261C0 44.8533 0.565096 46.222 1.57097 47.2312C2.57685 48.2404 3.94111 48.8073 5.36364 48.8073H53.6364V32.6638H64.3636V48.8073H112.636C114.059 48.8073 115.423 48.2404 116.429 47.2312C117.435 46.222 118 44.8533 118 43.4261V32.6638C118 29.8095 116.87 27.0721 114.858 25.0537C112.846 23.0354 110.118 21.9015 107.273 21.9015H90.27C96.5455 4.30515 72.9455 -8.12532 62.0573 7.04953L59 11.1392L55.9427 6.94191C52.5636 2.15268 47.8973 0.0540322 43.2309 0.000220692ZM42.9091 11.1392C47.6827 11.1392 50.0964 16.9509 46.7173 20.341C43.3382 23.7311 37.5455 21.3096 37.5455 16.5204C37.5455 15.0932 38.1105 13.7245 39.1164 12.7153C40.1223 11.7062 41.4866 11.1392 42.9091 11.1392ZM75.0909 11.1392C79.8645 11.1392 82.2782 16.9509 78.8991 20.341C75.52 23.7311 69.7273 21.3096 69.7273 16.5204C69.7273 15.0932 70.2924 13.7245 71.2982 12.7153C72.3041 11.7062 73.6684 11.1392 75.0909 11.1392ZM5.36364 54.1885V97.2377C5.36364 100.092 6.49383 102.829 8.50558 104.848C10.5173 106.866 13.2459 108 16.0909 108H101.909C104.754 108 107.483 106.866 109.494 104.848C111.506 102.829 112.636 100.092 112.636 97.2377V54.1885H64.3636V97.2377H53.6364V54.1885H5.36364Z" fill="#979797" fill-opacity="0.5"/>
</svg>
