<svg width="181" height="173" viewBox="0 0 181 173" fill="none" xmlns="http://www.w3.org/2000/svg">
<path d="M176.239 28.0216L92.7008 0.354992C91.2717 -0.118331 89.7267 -0.118331 88.2977 0.354992L4.75991 28.0216C3.37375 28.4808 2.16813 29.3616 1.31383 30.5393C0.459542 31.7171 -0.000108271 33.1321 1.91298e-08 34.5838V103.75C1.91298e-08 105.585 0.733439 107.344 2.03897 108.641C3.3445 109.938 5.11518 110.667 6.96148 110.667C8.80778 110.667 10.5785 109.938 11.884 108.641C13.1895 107.344 13.923 105.585 13.923 103.75V44.1807L43.1525 53.8554C35.3866 66.321 32.9171 81.3391 36.2861 95.6122C39.6552 109.885 48.5876 122.247 61.1218 129.982C45.4585 136.086 31.9184 147.127 22.0157 162.222C21.5007 162.983 21.1429 163.837 20.9633 164.736C20.7836 165.636 20.7856 166.561 20.9692 167.459C21.1528 168.358 21.5142 169.211 22.0325 169.969C22.5508 170.727 23.2157 171.376 23.9884 171.877C24.7611 172.377 25.6264 172.721 26.5337 172.886C27.4411 173.052 28.3726 173.037 29.274 172.841C30.1754 172.646 31.0288 172.275 31.7845 171.749C32.5403 171.223 33.1833 170.554 33.6762 169.779C46.7898 149.79 67.5002 138.334 90.4992 138.334C113.498 138.334 134.209 149.79 147.322 169.779C148.343 171.286 149.921 172.334 151.713 172.696C153.506 173.058 155.369 172.704 156.901 171.711C158.433 170.718 159.51 169.166 159.9 167.391C160.289 165.615 159.96 163.758 158.983 162.222C149.08 147.127 135.488 136.086 119.877 129.982C132.399 122.247 141.323 109.894 144.691 95.631C148.06 81.3684 145.598 66.3605 137.846 53.8986L176.239 41.1892C177.625 40.7304 178.831 39.8497 179.686 38.6719C180.54 37.4941 181 36.079 181 34.6271C181 33.1751 180.54 31.76 179.686 30.5822C178.831 29.4044 177.625 28.5237 176.239 28.0649V28.0216ZM132.268 83.0005C132.27 89.5614 130.706 96.0293 127.705 101.873C124.704 107.718 120.351 112.772 115.003 116.621C109.655 120.47 103.465 123.004 96.9408 124.016C90.4164 125.028 83.7434 124.488 77.4695 122.441C71.1956 120.395 65.4994 116.899 60.8485 112.242C56.1975 107.584 52.7242 101.898 50.7136 95.6481C48.703 89.3987 48.2123 82.7647 49.2819 76.2904C50.3515 69.8161 52.9508 63.686 56.8666 58.4031L88.2977 68.7781C89.7267 69.2514 91.2717 69.2514 92.7008 68.7781L124.132 58.4031C129.421 65.5272 132.272 74.148 132.268 83.0005Z" fill="#979797" fill-opacity="0.5"/>
</svg>
