<svg width="79" height="113" viewBox="0 0 79 113" fill="none" xmlns="http://www.w3.org/2000/svg">
<path fill-rule="evenodd" clip-rule="evenodd" d="M73.6834 20.1275C77.0122 26.0582 78.7599 32.7515 78.7574 39.5594C78.7598 45.9628 77.2116 52.2708 74.246 57.9395C71.2804 63.6083 66.9866 68.4678 61.7346 72.0991L78.7574 101.701L66.2012 102.458L59.2706 113L39.7725 79.0816C39.7177 79.0839 39.6648 79.0881 39.6122 79.0922C39.5352 79.0982 39.4589 79.1042 39.3787 79.1042C39.3112 79.1042 39.2465 79.0986 39.1818 79.0929C39.1171 79.0872 39.0524 79.0816 38.9849 79.0816L19.4868 113L12.6912 102.227L6.21231e-06 101.701L17.0229 72.0991C11.442 68.2342 6.94917 62.9878 3.97942 56.8679C1.00966 50.7479 -0.336473 43.9617 0.0713141 37.1661C0.479102 30.3705 2.627 23.7958 6.30709 18.0782C9.98719 12.3607 15.0748 7.69412 21.0775 4.53015C27.0802 1.36618 33.7946 -0.187972 40.5708 0.0181288C47.347 0.224229 53.9555 2.1836 59.7565 5.70658C65.5575 9.22956 70.3546 14.1968 73.6834 20.1275ZM15.9914 23.8666C12.9007 28.5117 11.2511 33.9728 11.2511 39.5594C11.2511 47.0508 14.2145 54.2353 19.4895 59.5325C24.7644 64.8297 31.9188 67.8057 39.3787 67.8057C44.9418 67.8057 50.38 66.1491 55.0056 63.0453C59.6311 59.9416 63.2363 55.5301 65.3653 50.3688C67.4942 45.2074 68.0512 39.5281 66.9659 34.0488C65.8806 28.5696 63.2017 23.5366 59.2679 19.5862C55.3342 15.6359 50.3224 12.9457 44.8661 11.8558C39.4099 10.7659 33.7544 11.3253 28.6147 13.4632C23.4751 15.6011 19.0821 19.2215 15.9914 23.8666ZM56.5002 39.3788C56.5002 48.8345 48.8348 56.4999 39.3791 56.4999C29.9233 56.4999 22.2579 48.8345 22.2579 39.3788C22.2579 29.923 29.9233 22.2576 39.3791 22.2576C48.8348 22.2576 56.5002 29.923 56.5002 39.3788Z" fill="#979797" fill-opacity="0.5"/>
</svg>
