<svg width="44" height="65" viewBox="0 0 44 65" fill="none" xmlns="http://www.w3.org/2000/svg">
<circle cx="21.8534" cy="42.7159" r="12.5752" fill="#EDEDED"/>
<path fill-rule="evenodd" clip-rule="evenodd" d="M7.77673 0C7.18773 0 6.71025 0.477476 6.71025 1.06647C6.71025 1.65547 7.18773 2.13294 7.77672 2.13294H8.83635C9.35051 2.13294 9.69638 2.76539 9.69638 3.27954V5.67838C9.69638 6.78295 10.5918 7.67838 11.6964 7.67838C12.0775 7.67838 12.3248 8.13008 12.2617 8.50592C12.1544 9.14415 12.3481 9.83774 12.9337 10.3412L13.827 11.1092C14.2566 11.4785 14.4963 12.015 14.5707 12.5766C14.9673 15.5682 16.9878 18.0471 19.7173 19.0984C19.9913 19.2039 20.1828 19.4611 20.1828 19.7548C20.1828 20.1075 19.9092 20.3994 19.5583 20.4352C19.4336 20.4479 19.3091 20.4616 19.185 20.4763H24.5233C23.6481 20.3724 22.7574 20.3189 21.8542 20.3189C21.6921 20.3189 21.5305 20.3207 21.3693 20.3241C21.2729 20.3261 21.1856 20.0482 21.1856 20.0482C21.1856 19.7678 21.4395 19.5564 21.7182 19.588C22.0219 19.6223 22.3307 19.64 22.6436 19.64C23.0753 19.64 23.4992 19.6064 23.9127 19.5417C24.2291 19.4922 24.5282 19.728 24.5282 20.0482C24.5282 20.0482 24.5282 20.4001 24.9293 20.4001C25.2616 20.4001 25.531 20.1307 25.531 19.7984V19.6388C25.531 19.3225 25.7281 19.0422 26.016 18.9111C28.3622 17.8423 30.1123 15.6927 30.63 13.0985C30.7347 12.5738 30.9845 12.0808 31.3991 11.7425L33.0758 10.374C33.6237 9.92683 33.8466 9.31405 33.8116 8.72345C33.7835 8.25024 34.0974 7.67838 34.5715 7.67838C35.676 7.67838 36.5715 6.78295 36.5715 5.67838V3.27955C36.5715 2.76539 36.9173 2.13294 37.4315 2.13294H39.3443C39.9333 2.13294 40.4108 1.65547 40.4108 1.06647C40.4108 0.477476 39.9333 0 39.3443 0H7.77673ZM0.67768 35.4068C2.99791 28.6823 8.43092 23.4083 15.2545 21.3072C14.6829 21.8534 14.3269 22.6233 14.3269 23.4763V25.984C14.3269 27.0886 13.4315 27.984 12.3269 27.984H8.68597C7.02911 27.984 5.68597 29.3272 5.68597 30.984V33.4068C5.68597 34.5114 4.79053 35.4068 3.68596 35.4068H0.67768ZM14.3269 63.8144C8.04505 61.5731 3.05769 56.6061 0.788877 50.3374H3.68597C4.79054 50.3374 5.68597 51.2329 5.68597 52.3374V55.8832C5.68597 57.5401 7.02911 58.8832 8.68597 58.8832H12.3269C13.4315 58.8832 14.3269 59.7786 14.3269 60.8832V63.8144ZM42.9195 50.3373C40.6358 56.6473 35.5977 61.6383 29.2575 63.8582V60.8832C29.2575 59.7786 30.1529 58.8832 31.2575 58.8832H33.5851C35.242 58.8832 36.5851 57.5401 36.5851 55.8832V52.3374C36.5851 51.2329 37.4806 50.3374 38.5851 50.3374H42.8945L42.9195 50.3373ZM28.2699 21.2514C35.1808 23.3142 40.6913 28.6236 43.0317 35.4099C42.9862 35.4079 42.9405 35.4068 42.8945 35.4068H38.5851C37.4806 35.4068 36.5851 34.5114 36.5851 33.4068V30.984C36.5851 29.3272 35.242 27.984 33.5851 27.984H31.2575C30.1529 27.984 29.2575 27.0886 29.2575 25.984V23.4763C29.2575 22.5939 28.8765 21.8004 28.2699 21.2514ZM22.6434 17.963C22.1532 17.963 21.6757 17.9084 21.2167 17.8051C21.1985 17.801 21.1856 17.7848 21.1856 17.7661C21.1856 17.7439 21.1676 17.7259 21.1455 17.7259H20.9365C20.9139 17.7259 20.8913 17.7229 20.8696 17.7167C19.0811 17.2077 17.6087 15.9483 16.8144 14.3005C16.6869 14.0362 16.9901 13.8285 17.2126 14.0198C17.5754 14.3317 18.038 14.5032 18.5164 14.5032H27.304C27.7649 14.5032 28.2116 14.344 28.5686 14.0526C28.5753 14.0472 28.5848 14.0544 28.5814 14.0623C27.5881 16.3573 25.3033 17.963 22.6434 17.963ZM26.2575 25.4763C26.2575 24.3718 25.3621 23.4763 24.2575 23.4763L19.3269 23.4763C18.2223 23.4763 17.3269 24.3718 17.3269 25.4763V25.984C17.3269 27.0886 18.2223 27.984 19.3269 27.984H24.2575C25.3621 27.984 26.2575 27.0886 26.2575 25.984V25.4763ZM26.2575 32.984C26.2575 31.8795 25.3621 30.984 24.2575 30.984H19.3269C18.2223 30.984 17.3269 31.8795 17.3269 32.984V33.4068C17.3269 34.5114 18.2223 35.4068 19.3269 35.4068H24.2575C25.3621 35.4068 26.2575 34.5114 26.2575 33.4068V32.984ZM14.3269 32.984C14.3269 31.8795 13.4315 30.984 12.3269 30.984H10.686C9.5814 30.984 8.68597 31.8795 8.68597 32.984V33.4068C8.68597 34.5114 9.5814 35.4068 10.686 35.4068H12.3269C13.4315 35.4068 14.3269 34.5114 14.3269 33.4068V32.984ZM5.68597 40.4068C5.68597 39.3023 4.79053 38.4068 3.68596 38.4068H2.26334C1.15877 38.4068 0.263336 39.3023 0.263336 40.4068V45.3374C0.263336 46.442 1.15877 47.3374 2.26334 47.3374H3.68597C4.79054 47.3374 5.68597 46.442 5.68597 45.3374V40.4068ZM10.686 47.3374C9.5814 47.3374 8.68597 46.442 8.68597 45.3374V40.4068C8.68597 39.3023 9.5814 38.4068 10.686 38.4068H12.3269C13.4315 38.4068 14.3269 39.3023 14.3269 40.4068V45.3374C14.3269 46.442 13.4315 47.3374 12.3269 47.3374H10.686ZM10.686 50.3374C9.5814 50.3374 8.68597 51.2329 8.68597 52.3374V53.8832C8.68597 54.9878 9.5814 55.8832 10.686 55.8832H12.3269C13.4315 55.8832 14.3269 54.9878 14.3269 53.8832V52.3374C14.3269 51.2329 13.4315 50.3374 12.3269 50.3374H10.686ZM19.3269 58.8832C18.2223 58.8832 17.3269 59.7786 17.3269 60.8832V62.4011C17.3269 63.5057 18.2223 64.4011 19.3269 64.4011L24.2575 64.4011C25.3621 64.4011 26.2575 63.5057 26.2575 62.4011V60.8832C26.2575 59.7786 25.3621 58.8832 24.2575 58.8832H19.3269ZM26.2575 53.8832C26.2575 54.9878 25.3621 55.8832 24.2575 55.8832H19.3269C18.2223 55.8832 17.3269 54.9878 17.3269 53.8832V52.3374C17.3269 51.2329 18.2223 50.3374 19.3269 50.3374H24.2575C25.3621 50.3374 26.2575 51.2329 26.2575 52.3374V53.8832ZM29.2575 53.8832C29.2575 54.9878 30.1529 55.8832 31.2575 55.8832H31.5851C32.6897 55.8832 33.5851 54.9878 33.5851 53.8832V52.3374C33.5851 51.2329 32.6897 50.3374 31.5851 50.3374H31.2575C30.1529 50.3374 29.2575 51.2329 29.2575 52.3374V53.8832ZM36.5851 45.3374C36.5851 46.442 37.4806 47.3374 38.5851 47.3374H40.8945C41.999 47.3374 42.8945 46.442 42.8945 45.3374V40.4068C42.8945 39.3023 41.999 38.4068 40.8945 38.4068H38.5851C37.4806 38.4068 36.5851 39.3023 36.5851 40.4068V45.3374ZM31.5851 38.4068C32.6897 38.4068 33.5851 39.3023 33.5851 40.4068V45.3374C33.5851 46.442 32.6897 47.3374 31.5851 47.3374H31.2575C30.1529 47.3374 29.2575 46.442 29.2575 45.3374V40.4068C29.2575 39.3023 30.1529 38.4068 31.2575 38.4068H31.5851ZM33.5851 33.4068C33.5851 34.5114 32.6897 35.4068 31.5851 35.4068H31.2575C30.1529 35.4068 29.2575 34.5114 29.2575 33.4068V32.984C29.2575 31.8795 30.1529 30.984 31.2575 30.984H31.5851C32.6897 30.984 33.5851 31.8795 33.5851 32.984V33.4068ZM19.3269 38.4068C18.2223 38.4068 17.3269 39.3023 17.3269 40.4068V45.3374C17.3269 46.442 18.2223 47.3374 19.3269 47.3374H24.2575C25.3621 47.3374 26.2575 46.442 26.2575 45.3374L26.2575 40.4068C26.2575 39.3023 25.3621 38.4068 24.2575 38.4068H19.3269ZM31.7938 26.5472C32.4553 26.5472 32.9915 26.011 32.9915 25.3496C32.9915 24.6881 32.4553 24.1519 31.7938 24.1519C31.1324 24.1519 30.5962 24.6881 30.5962 25.3496C30.5962 26.011 31.1324 26.5472 31.7938 26.5472ZM40.6563 33.0143C40.6563 33.6757 40.1201 34.2119 39.4587 34.2119C38.7972 34.2119 38.261 33.6757 38.261 33.0143C38.261 32.3529 38.7972 31.8167 39.4587 31.8167C40.1201 31.8167 40.6563 32.3529 40.6563 33.0143ZM39.4587 53.6141C40.1201 53.6141 40.6563 53.0779 40.6563 52.4164C40.6563 51.755 40.1201 51.2188 39.4587 51.2188C38.7972 51.2188 38.261 51.755 38.261 52.4164C38.261 53.0779 38.7972 53.6141 39.4587 53.6141ZM13.3505 60.5604C13.3505 61.2218 12.8143 61.758 12.1528 61.758C11.4914 61.758 10.9552 61.2218 10.9552 60.5604C10.9552 59.8989 11.4914 59.3627 12.1528 59.3627C12.8143 59.3627 13.3505 59.8989 13.3505 60.5604ZM33.2314 60.5604C33.2314 61.2218 32.6952 61.758 32.0338 61.758C31.3723 61.758 30.8361 61.2218 30.8361 60.5604C30.8361 59.8989 31.3723 59.3627 32.0338 59.3627C32.6952 59.3627 33.2314 59.8989 33.2314 60.5604ZM13.3505 25.3496C13.3505 26.011 12.8143 26.5472 12.1528 26.5472C11.4914 26.5472 10.9552 26.011 10.9552 25.3496C10.9552 24.6881 11.4914 24.1519 12.1528 24.1519C12.8143 24.1519 13.3505 24.6881 13.3505 25.3496ZM4.24843 34.4515C4.90987 34.4515 5.44608 33.9153 5.44608 33.2539C5.44608 32.5925 4.90987 32.0563 4.24843 32.0563C3.58699 32.0563 3.05079 32.5925 3.05079 33.2539C3.05079 33.9153 3.58699 34.4515 4.24843 34.4515ZM5.44608 52.4164C5.44608 53.0779 4.90987 53.6141 4.24843 53.6141C3.58699 53.6141 3.05079 53.0779 3.05079 52.4164C3.05079 51.755 3.58699 51.2188 4.24843 51.2188C4.90987 51.2188 5.44608 51.755 5.44608 52.4164Z" fill="white"/>
</svg>
