<svg width="49" height="67" viewBox="0 0 49 67" fill="none" xmlns="http://www.w3.org/2000/svg">
<path fill-rule="evenodd" clip-rule="evenodd" d="M22.6617 17.6992C28.0207 17.6992 32.3649 14.5197 32.3649 10.5977C32.3649 6.67557 28.0207 3.49609 22.6617 3.49609C17.3028 3.49609 12.9585 6.67557 12.9585 10.5977C12.9585 14.5197 17.3028 17.6992 22.6617 17.6992ZM22.6613 16.2377C26.9169 16.2377 30.3668 13.7128 30.3668 10.5982C30.3668 7.48364 26.9169 4.95876 22.6613 4.95876C18.4057 4.95876 14.9558 7.48364 14.9558 10.5982C14.9558 13.7128 18.4057 16.2377 22.6613 16.2377Z" fill="black"/>
<rect x="7.23554" y="1.58789" width="32.0207" height="5.59091" rx="2" fill="black"/>
<path d="M12.1767 10.37C10.467 9.30846 11.2192 6.6709 13.2317 6.6709H32.9412C34.9779 6.6709 35.7114 9.35963 33.9568 10.3938L29.5334 13.0013C29.2257 13.1827 28.875 13.2783 28.5178 13.2783H17.4312C17.0584 13.2783 16.693 13.1741 16.3762 12.9775L12.1767 10.37Z" fill="black"/>
<path d="M19.9422 16.3281H20.9587V18.5351C20.9587 18.5351 20.9587 18.8694 20.5521 18.8694C20.1455 18.8694 19.9422 18.8694 19.9422 18.8694V16.3281Z" fill="black"/>
<path d="M26.0413 16.3281H25.0248V18.5351C25.0248 18.5351 25.0248 18.8694 25.4314 18.8694C25.838 18.8694 26.0413 18.8694 26.0413 18.8694V16.3281Z" fill="black"/>
<rect x="3.67768" y="0.571289" width="40.1529" height="2.03306" rx="1.01653" fill="black"/>
<circle cx="24.2624" cy="42.5029" r="24.1426" fill="black"/>
<path fill-rule="evenodd" clip-rule="evenodd" d="M45.7379 42.5042C45.7379 54.3644 36.1233 63.979 24.263 63.979C12.4028 63.979 2.78814 54.3644 2.78814 42.5042C2.78814 30.6439 12.4028 21.0293 24.263 21.0293C36.1233 21.0293 45.7379 30.6439 45.7379 42.5042ZM42.67 42.4381C42.67 52.6409 34.3991 60.9118 24.1963 60.9118C13.9935 60.9118 5.72257 52.6409 5.72257 42.4381C5.72257 32.2353 13.9935 23.9644 24.1963 23.9644C34.3991 23.9644 42.67 32.2353 42.67 42.4381ZM22.9723 31.2345C22.9891 31.1809 22.9982 31.1238 22.9982 31.0647C22.9982 30.7515 22.7443 30.4976 22.4311 30.4976C22.1178 30.4976 21.8639 30.7515 21.8639 31.0647C21.8639 31.1238 21.873 31.1807 21.8897 31.2343C21.6455 31.4052 21.4857 31.6886 21.4857 32.0093C21.4857 32.3576 21.674 32.6619 21.9544 32.8258L21.9209 33.9589L21.8647 33.947H18.3202C17.7909 33.947 17.0284 34.8922 16.7133 35.3648L14.6339 35.5065L15.2483 36.3572L16.7133 36.4517C16.8079 36.3572 17.1198 36.0075 17.6113 35.3648C18.1028 34.722 18.7928 34.6559 19.0763 34.7031C19.7571 34.7779 20.8271 34.9032 21.8888 35.0424L21.5991 44.8179C21.527 44.9428 21.4857 45.0879 21.4857 45.2425C21.4857 45.6132 21.7228 45.9285 22.0535 46.045V46.3394C21.885 46.4254 21.7696 46.6006 21.7696 46.8027C21.7696 46.9533 21.8336 47.0888 21.9358 47.1838C21.6173 47.293 21.3914 47.5678 21.3914 47.8894C21.3914 48.1863 21.5839 48.4432 21.8639 48.567V49.3543C21.8045 49.4081 21.7696 49.4736 21.7696 49.5443C21.7696 49.6151 21.8045 49.6806 21.8639 49.7344V49.7346C21.6109 49.8045 21.4294 49.9423 21.3967 50.1051C20.1931 50.2357 19.3127 50.654 19.3127 51.1498C19.3127 51.7502 20.6034 52.2368 22.1955 52.2368C23.7877 52.2368 25.0784 51.7502 25.0784 51.1498C25.0784 50.6672 24.244 50.258 23.0895 50.1161C23.0663 49.9697 22.923 49.8425 22.7146 49.7651V49.7348C22.7743 49.6809 22.8093 49.6153 22.8093 49.5443C22.8093 49.4734 22.7743 49.4077 22.7146 49.3539V48.5183C22.9426 48.3827 23.0928 48.1516 23.0928 47.8894C23.0928 47.5903 22.8973 47.3317 22.6138 47.2091C22.733 47.1138 22.8093 46.9672 22.8093 46.8027C22.8093 46.6009 22.6943 46.4259 22.5261 46.3398V46.0719C22.9046 45.9857 23.1871 45.6471 23.1871 45.2425C23.1871 45.1394 23.1687 45.0406 23.1351 44.9492L23.0268 35.1985C23.7702 35.3057 24.4294 35.4133 24.842 35.5065C26.0141 35.7712 26.3701 36.562 26.4016 36.9243L27.2995 37.1606L27.016 37.964L25.7872 43.4462L25.7917 43.4479H24.8887L25.7394 45.0547H30.04L30.5599 43.4479H26.454L27.5831 38.3894L29.4262 43.4462H30.1824L28.103 37.775C28.3078 37.6175 28.7646 37.274 28.9536 37.1606C29.1427 37.0472 28.8749 36.9558 28.7173 36.9243H28.103C28.0084 36.9243 27.7154 36.8582 27.2995 36.5935C26.9837 36.3925 26.9819 36.3834 26.9655 36.3012C26.9549 36.2481 26.9382 36.1646 26.8269 35.9791C26.6001 35.6011 25.7872 34.9709 25.4091 34.7031L23.0156 34.1925L22.9998 32.7643C23.2283 32.5917 23.3761 32.3178 23.3761 32.0093C23.3761 31.6887 23.2165 31.4054 22.9723 31.2345ZM13.7409 43.2576H14.8292L15.6264 36.9243L15.3606 43.2576H17.715L15.7681 37.0188L15.8627 36.5935L18.2525 43.2576H18.4618L17.9419 44.8645H13.6413L12.7906 43.2576H13.2351L15.6264 36.4517L13.7409 43.2576ZM30.4935 45.6554C29.8521 46.408 29.9422 47.5381 30.6948 48.1796C31.4474 48.821 32.5775 48.7309 33.2189 47.9783L34.1456 46.891C34.172 46.976 34.2237 47.054 34.299 47.1126L38.9806 50.7589C39.2449 50.9648 39.6268 50.9139 39.828 50.6459C40.0311 50.3752 39.9699 49.99 39.6928 49.7957L34.8347 46.3882C34.7747 46.3461 34.708 46.3207 34.64 46.311L35.2633 45.5797C35.9048 44.827 35.8147 43.6969 35.0621 43.0555C34.3094 42.414 33.1793 42.5041 32.5379 43.2568L30.4935 45.6554Z" fill="#E0E0E0"/>
</svg>
