<svg width="34" height="66" viewBox="0 0 34 66" fill="none" xmlns="http://www.w3.org/2000/svg">
<path fill-rule="evenodd" clip-rule="evenodd" d="M1.04523 2.9705C1.04523 1.32994 2.37517 0 4.01573 0H30.9915C32.6321 0 33.962 1.32994 33.962 2.9705C33.962 4.60605 32.6402 5.93287 31.0065 5.94096H33.1784V15.7643C33.6376 15.9453 33.9626 16.3928 33.9626 16.9163C33.9626 17.5998 33.4084 18.154 32.7248 18.154H18.0894C18.4507 18.4113 18.6802 18.7959 18.6802 19.2256C18.6802 19.7155 18.382 20.1467 17.9302 20.3976C18.0327 20.5365 18.0919 20.7004 18.0919 20.876C18.0919 20.9115 18.0895 20.9465 18.0848 20.9809C22.6915 21.2728 26.3215 24.5135 26.3215 28.4683C26.3215 28.7756 26.2996 29.0786 26.257 29.3763H25.243L23.0885 32.0157V33.1709H22.4119C26.9784 35.2901 30.3271 40.1163 30.9274 45.9034C31.4672 46.0042 32.3249 46.2369 32.3249 46.5385C32.3249 46.7006 32.515 46.7735 32.7335 46.8573C33.0713 46.9869 33.4768 47.1425 33.3521 47.6937C33.1466 48.6014 32.6332 49.0965 32.3249 49.179C32.0783 49.245 31.9481 49.6465 31.9139 49.8391H30.9066C30.1794 56.1835 26.1449 61.3411 20.8422 62.9854C20.9014 63.031 20.9334 63.077 20.9334 63.1232C20.9334 63.4667 20.5523 63.5476 20.2639 63.6087C20.0674 63.6504 19.914 63.683 19.9537 63.7833C20.0321 63.9814 19.5292 64.3609 19.2679 64.526C19.072 64.4985 18.6213 64.5095 18.3862 64.7735C18.0923 65.1036 17.7984 65.2686 17.3086 65.2686C16.9167 65.2686 16.6228 64.9385 16.5249 64.7735H15.6432C15.4147 64.7735 15.3354 64.6298 15.2462 64.4681C15.1442 64.2833 15.0292 64.0749 14.6633 64.0309C14.1332 63.9671 14.1093 63.4358 14.1672 63.152C8.52809 61.7053 4.19385 56.3239 3.49583 49.6677L3.29896 49.7558H2.2215C2.18884 49.5632 2.06472 49.1617 1.82946 49.0957C1.5354 49.0131 1.04573 48.5181 0.849797 47.6104C0.730812 47.0592 1.11762 46.9036 1.43979 46.774C1.64815 46.6902 1.82946 46.6172 1.82946 46.4552C1.82946 46.1252 2.80913 45.8776 3.29896 45.7951L3.50187 45.8267C4.12372 40.0737 7.46295 35.2807 12.0093 33.1709H11.3326V32.0157L9.4719 29.3763H8.55607C8.51348 29.0786 8.49156 28.7756 8.49156 28.4683C8.49156 24.7366 11.7235 21.6408 15.9584 21.0581C15.9441 20.9993 15.9367 20.9384 15.9367 20.876C15.9367 20.7003 15.996 20.5362 16.0986 20.3973C15.6472 20.1463 15.3493 19.7153 15.3493 19.2256C15.3493 18.7959 15.5787 18.4113 15.94 18.154H1.49974C0.816176 18.154 0.262039 17.5998 0.262039 16.9163C0.262039 16.2327 0.816177 15.6786 1.49974 15.6786H2.02504V5.94096H4.00071C2.36706 5.93287 1.04523 4.60605 1.04523 2.9705ZM1.70617 16.3384C1.3416 16.3384 1.04606 16.634 1.04606 16.9985C1.04606 17.3631 1.3416 17.6587 1.70617 17.6587H32.7149C33.0795 17.6587 33.375 17.3631 33.375 16.9985C33.375 16.634 33.0795 16.3384 32.7149 16.3384H1.70617Z" fill="white"/>
<path d="M25.2335 47.6927C25.2335 52.9524 21.5348 57.0943 17.1124 57.0943C12.6901 57.0943 8.99138 52.9524 8.99138 47.6927C8.99138 42.433 12.6901 38.291 17.1124 38.291C21.5348 38.291 25.2335 42.433 25.2335 47.6927Z" stroke="black"/>
</svg>
