<svg width="46" height="65" viewBox="0 0 46 65" fill="none" xmlns="http://www.w3.org/2000/svg">
<ellipse cx="22.2363" cy="46.6462" rx="14.8605" ry="13.9939" fill="#D9D9D9"/>
<ellipse cx="22.9794" cy="43.1479" rx="22.5385" ry="21.224" fill="white"/>
<path fill-rule="evenodd" clip-rule="evenodd" d="M4.4035 1.16616C4.4035 0.522106 4.92561 0 5.56966 0H42.37C43.0141 0 43.5362 0.522106 43.5362 1.16616C43.5362 1.81021 43.0141 2.33231 42.37 2.33231H39.8958C39.4074 2.33231 39.0784 2.91087 39.0784 3.39935V6.39628C39.0784 7.50085 38.183 8.39628 37.0784 8.39628C36.5546 8.39628 36.2022 9.01475 36.1877 9.53836C36.1725 10.0909 35.9284 10.6456 35.4034 11.0491L33.0051 12.8923C32.568 13.2283 32.3009 13.7326 32.1899 14.2727C31.6007 17.1394 29.5514 19.5158 26.7999 20.6881C26.4791 20.8248 26.2584 21.1327 26.2584 21.4813V21.6076C26.2584 21.9934 25.9456 22.3062 25.5597 22.3062C25.0939 22.3062 25.0939 21.9215 25.0939 21.9215C25.0939 21.5699 24.7681 21.3094 24.4204 21.3621C23.9273 21.4369 23.4214 21.4758 22.9058 21.4758C22.53 21.4758 22.1594 21.4551 21.795 21.415C21.4894 21.3813 21.2127 21.614 21.2127 21.9215C21.2127 21.9215 21.2127 22.3062 20.7469 22.3062C20.3611 22.3062 20.0483 21.9934 20.0483 21.6076V21.5933C20.0483 21.2781 19.84 21.0027 19.5432 20.8963C16.3403 19.7486 13.9708 17.009 13.525 13.7041C13.4466 13.1233 13.1893 12.5709 12.7338 12.2021L11.2709 11.0178C10.7001 10.5557 10.479 9.91405 10.5333 9.30292C10.5706 8.88377 10.2921 8.39628 9.87133 8.39628C8.76676 8.39628 7.87133 7.50085 7.87133 6.39628V3.39935C7.87133 2.91087 7.54239 2.33231 7.05392 2.33231H5.56966C4.92561 2.33231 4.4035 1.81021 4.4035 1.16616ZM21.2476 19.4696C21.2272 19.4653 21.2127 19.4473 21.2127 19.4264C21.2127 19.402 21.1929 19.3822 21.1684 19.3822H20.9175C20.8922 19.3822 20.8668 19.3789 20.8423 19.3723C18.8226 18.8301 17.1503 17.5116 16.2124 15.7814C16.0329 15.4501 16.4085 15.1771 16.7014 15.4141C17.0574 15.7024 17.5017 15.8597 17.9598 15.8597H28.4645C28.9053 15.8597 29.3337 15.7141 29.6833 15.4454C29.7178 15.4189 29.7639 15.4558 29.745 15.4951C28.5635 17.9415 25.9454 19.6425 22.9054 19.6425C22.3358 19.6425 21.781 19.5828 21.2476 19.4696Z" fill="white"/>
<path d="M17.2011 51.1283C16.5933 51.5802 15.6816 53.3366 15.3018 54.1583C15.971 54.4493 17.7329 55.1752 19.426 55.7504C21.5423 56.4694 25.7208 55.3909 27.9457 53.542C29.7256 52.063 31.3645 50.94 31.9614 50.5633L34.6204 49.4848L34.2406 49.1253L33.4266 48.2523L32.7211 47.5846C32.5475 47.4203 31.7443 47.0368 31.3645 46.8656L31.9614 46.3521L30.8761 45.9412L30.7676 45.6331C30.5867 45.3934 30.1489 44.9141 29.845 44.9141C29.4652 44.9141 29.1396 45.2222 28.8682 45.0682C28.6512 44.945 27.6201 43.9555 27.1317 43.4761C26.8966 43.4761 26.4263 43.4145 26.4263 43.1679C26.4263 42.8598 26.3177 42.5517 26.4263 41.9867C26.5131 41.5348 27.0775 40.6686 27.3488 40.292V39.573C27.4031 39.6243 27.5333 39.6962 27.6201 39.573C27.707 39.4497 27.7287 39.1108 27.7287 38.9567L27.9457 38.3918V38.0837L28.1085 37.416C28.1628 37.416 28.3147 37.3236 28.4884 36.9538C28.662 36.584 29.1396 36.5258 29.3566 36.543L29.031 36.2861V35.7212L29.1396 35.5671L28.8682 35.259V35.0536L28.7597 35.0022V34.7455L28.4884 34.4887V34.3346L28.1085 34.0778V33.821L27.7287 33.7183V33.5642H27.3488V33.2047H26.9689L26.8604 33.0507H26.5891V32.7425H26.1549V32.5371H25.8294L25.9379 32.3831H25.4495V32.229L24.9068 32.1263H24.744H24.2556V31.9208L24.4727 31.4073L24.2556 31.0991C24.1109 30.9793 23.7347 30.7499 23.3874 30.791C22.9533 30.8424 22.8447 31.2018 22.6277 31.4073C22.454 31.5716 22.5553 31.7497 22.6277 31.8181H22.3563L22.1393 31.7154L21.7594 31.8181L21.4881 31.7154L21.1625 31.8181H20.8911L20.7284 31.9208L20.457 31.8181L20.0772 31.9208H19.8601L19.5345 32.229L19.2632 32.1263L19.1004 32.3831H18.8833L18.7205 32.5885H18.4492L18.3407 32.8453H18.0151L17.9065 33.0507H17.6352V33.4102L17.4181 33.3075V33.7183H17.0925V34.0778H16.8212V34.4887H16.6041L16.8212 34.7455C16.8212 34.7968 16.7995 34.9509 16.7127 35.1563C16.6041 35.4131 16.9297 35.5158 17.2011 35.6699C17.4724 35.824 17.3096 36.0294 17.2011 36.1321C17.1142 36.2143 17.2372 36.4402 17.3096 36.543L17.2011 37.2106C17.1649 37.2277 17.0925 37.2928 17.0925 37.416C17.0925 37.5393 17.4543 37.6386 17.6352 37.6728C17.6352 37.7242 17.5918 37.8782 17.4181 38.0837C17.2011 38.3405 17.2011 38.9567 17.3096 39.2135C17.3964 39.4189 17.2734 39.8127 17.2011 39.9839C16.9659 40.2749 16.4522 40.898 16.2785 41.0624C16.0615 41.2678 15.8444 41.6273 15.9529 41.6273C16.0615 41.6273 16.4956 42.0895 16.4956 42.2436C16.4956 42.3668 16.6403 42.8085 16.7127 43.0139C16.7488 43.1509 16.8538 43.435 16.984 43.4761C17.1142 43.5172 17.3277 43.9383 17.4181 44.1438C17.4181 44.2636 17.3964 44.6163 17.3096 45.0682C17.2228 45.5201 17.8884 46.1124 18.2321 46.3521C18.811 46.1809 20.0555 45.8796 20.4028 46.0439C20.7501 46.2083 20.6922 46.3178 20.6198 46.3521L20.24 46.8656H20.6198L19.426 47.3792L18.4492 47.9955H19.426L16.7127 50.5633C17.1287 50.5633 17.8088 50.6763 17.2011 51.1283Z" fill="black"/>
</svg>
