<svg width="59" height="70" viewBox="0 0 59 70" fill="none" xmlns="http://www.w3.org/2000/svg">
<circle cx="22.7674" cy="50.8041" r="15.0698" fill="#D9D9D9"/>
<circle cx="23.5209" cy="47.0365" r="22.8558" fill="black"/>
<path fill-rule="evenodd" clip-rule="evenodd" d="M4.68372 1.8271C4.68372 1.13354 5.24596 0.571289 5.93953 0.571289H43.1116C43.8052 0.571289 44.3674 1.13354 44.3674 1.8271C44.3674 2.52067 43.8052 3.08292 43.1116 3.08292H40.6234C40.1599 3.08292 39.8465 3.61474 39.8465 4.07827V7.61315C39.8465 8.71772 38.9511 9.61315 37.8465 9.61315C37.4565 9.61315 37.1968 10.0516 37.2329 10.4399C37.2897 11.051 37.0711 11.6938 36.5023 12.1581L33.6407 14.4936C33.2262 14.832 32.9745 15.3245 32.878 15.8507C32.3055 18.9705 30.2234 21.5622 27.4169 22.8406C27.0781 22.9949 26.846 23.3248 26.846 23.6972V23.8848C26.846 24.2761 26.5288 24.5933 26.1375 24.5933C25.6651 24.5933 25.6651 24.179 25.6651 24.179C25.6651 23.8022 25.3132 23.5247 24.9409 23.583C24.4538 23.6592 23.9544 23.6988 23.4459 23.6988C23.0772 23.6988 22.7134 23.678 22.3556 23.6375C22.0278 23.6004 21.729 23.8491 21.729 24.179C21.729 24.179 21.729 24.5933 21.2567 24.5933C20.8654 24.5933 20.5482 24.2761 20.5482 23.8848V23.8198C20.5482 23.4825 20.3282 23.187 20.0133 23.0662C16.745 21.813 14.3372 18.8224 13.9203 15.225C13.8551 14.6623 13.6134 14.1263 13.1838 13.757L11.2858 12.1252C10.6797 11.6042 10.4935 10.8795 10.6262 10.2232C10.684 9.93698 10.492 9.61315 10.2 9.61315C9.09543 9.61315 8.2 8.71772 8.2 7.61315V4.07827C8.2 3.61474 7.88659 3.08292 7.42307 3.08292H5.93953C5.24596 3.08292 4.68372 2.52067 4.68372 1.8271ZM21.7659 21.5382C21.7443 21.5333 21.729 21.5141 21.729 21.492C21.729 21.4657 21.7077 21.4444 21.6815 21.4444H21.434C21.4072 21.4444 21.3805 21.4408 21.3547 21.4335C19.2927 20.846 17.5877 19.4114 16.64 17.5299C16.4673 17.187 16.8594 16.9168 17.1505 17.1671C17.5133 17.479 17.9759 17.6505 18.4543 17.6505H29.0602C29.5211 17.6505 29.9678 17.4913 30.3248 17.1999C30.3578 17.173 30.4039 17.2081 30.3863 17.2468C29.1906 19.8872 26.5325 21.724 23.4455 21.724C22.8684 21.724 22.3063 21.6598 21.7659 21.5382Z" fill="black"/>
<path d="M17.6609 55.6307C17.0446 56.1174 16.1201 58.0089 15.7349 58.8937C16.4136 59.2071 18.2002 59.9888 19.9171 60.6082C22.0633 61.3825 26.3006 60.2211 28.5569 58.2301C30.3619 56.6373 32.0238 55.4279 32.6291 55.0224L35.3256 53.8609L34.9404 53.4738L34.1149 52.5336L33.3995 51.8146C33.2234 51.6377 32.409 51.2247 32.0238 51.0404L32.6291 50.4873L31.5285 50.0449L31.4184 49.713C31.235 49.455 30.7911 48.9388 30.4829 48.9388C30.0977 48.9388 29.7675 49.2706 29.4924 49.1047C29.2723 48.972 28.2267 47.9065 27.7314 47.3903C27.493 47.3903 27.016 47.3239 27.016 47.0584C27.016 46.7265 26.906 46.3947 27.016 45.7864C27.1041 45.2997 27.6764 44.3669 27.9515 43.9613V43.187C28.0066 43.2423 28.1386 43.3197 28.2267 43.187C28.3147 43.0543 28.3367 42.6893 28.3367 42.5233L28.5569 41.915V41.5832L28.722 40.8642C28.777 40.8642 28.9311 40.7647 29.1072 40.3664C29.2833 39.9682 29.7675 39.9056 29.9876 39.924L29.6575 39.6475V39.0391L29.7675 38.8732L29.4924 38.5414V38.3201L29.3823 38.2648V37.9884L29.1072 37.7118V37.5459L28.722 37.2694V36.9928L28.3367 36.8823V36.7163H27.9515V36.3291H27.5663L27.4563 36.1633H27.1811V35.8314H26.7409V35.6102H26.4107L26.5208 35.4443H26.0255V35.2784L25.4752 35.1678H25.3101H24.8148V34.9466L25.0349 34.3935L24.8148 34.0617C24.6681 33.9326 24.2865 33.6856 23.9343 33.7298C23.4941 33.7852 23.384 34.1723 23.1639 34.3935C22.9878 34.5705 23.0905 34.7622 23.1639 34.836H22.8888L22.6686 34.7253L22.2834 34.836L22.0083 34.7253L21.6781 34.836H21.403L21.2379 34.9466L20.9627 34.836L20.5775 34.9466H20.3574L20.0272 35.2784L19.7521 35.1678L19.587 35.4443H19.3668L19.2018 35.6655H18.9266L18.8165 35.9421H18.4864L18.3763 36.1633H18.1012V36.5504L17.881 36.4398V36.8823H17.5509V37.2694H17.2757V37.7118H17.0556L17.2757 37.9884C17.2757 38.0437 17.2537 38.2096 17.1656 38.4308C17.0556 38.7073 17.3858 38.8179 17.6609 38.9839C17.9361 39.1498 17.771 39.371 17.6609 39.4816C17.5729 39.5701 17.6976 39.8134 17.771 39.924L17.6609 40.643C17.6242 40.6615 17.5509 40.7315 17.5509 40.8642C17.5509 40.997 17.9177 41.1039 18.1012 41.1408C18.1012 41.1961 18.0571 41.362 17.881 41.5832C17.6609 41.8597 17.6609 42.5234 17.771 42.7999C17.859 43.0211 17.7343 43.4452 17.6609 43.6295C17.4225 43.9429 16.9015 44.6139 16.7254 44.7909C16.5053 45.0121 16.2852 45.3993 16.3952 45.3993C16.5053 45.3993 16.9455 45.897 16.9455 46.0629C16.9455 46.1957 17.0923 46.6713 17.1656 46.8925C17.2023 47.04 17.3087 47.346 17.4408 47.3903C17.5729 47.4345 17.7893 47.888 17.881 48.1092C17.881 48.2383 17.859 48.618 17.771 49.1047C17.6829 49.5914 18.358 50.2292 18.7065 50.4873C19.2935 50.303 20.5555 49.9785 20.9077 50.1555C21.2599 50.3325 21.2012 50.4505 21.1278 50.4873L20.7426 51.0404H21.1278L19.9171 51.5934L18.9266 52.2571H19.9171L17.1656 55.0224C17.5875 55.0224 18.2773 55.144 17.6609 55.6307Z" fill="#D9D9D9"/>
</svg>
