<svg width="21" height="21" viewBox="0 0 21 21" fill="none" xmlns="http://www.w3.org/2000/svg">
<path d="M15 11C14.2333 10.3 13.4873 9.61233 12.762 8.937C12.0367 8.26167 11.395 7.59933 10.837 6.95C10.279 6.3 9.83333 5.671 9.5 5.063C9.16667 4.455 9 3.86733 9 3.3C9 2.36667 9.31667 1.58333 9.95 0.95C10.5833 0.316667 11.3667 0 12.3 0C12.8333 0 13.3333 0.112667 13.8 0.338C14.2667 0.563333 14.6667 0.867333 15 1.25C15.3333 0.866667 15.7333 0.562667 16.2 0.338C16.6667 0.113333 17.1667 0.000666667 17.7 0C18.6333 0 19.4167 0.316667 20.05 0.95C20.6833 1.58333 21 2.36667 21 3.3C21 3.86667 20.8333 4.45433 20.5 5.063C20.1667 5.67167 19.721 6.30067 19.163 6.95C18.6043 7.6 17.9667 8.26267 17.25 8.938C16.5333 9.61333 15.7833 10.3007 15 11ZM13 20.5L6 18.55V9H7.95L14.15 11.3C14.7 11.5 15.1457 11.85 15.487 12.35C15.8283 12.85 15.9993 13.4 16 14H14C13.3 14 12.75 13.975 12.35 13.925C11.95 13.875 11.6 13.8 11.3 13.7L9.3 13.05L9 14L10.575 14.575C11.0417 14.7583 11.4667 14.875 11.85 14.925C12.2333 14.975 12.6833 15 13.2 15H18C19.1 15 19.875 15.179 20.325 15.537C20.775 15.895 21 16.3827 21 17V18L13 20.5ZM0 20V9H4V20H0Z" fill="#FFFCF9"/>
</svg>
