<svg width="11" height="11" viewBox="0 0 11 11" fill="none" xmlns="http://www.w3.org/2000/svg">
<path d="M7.4685 10.3371V6.33684H8.80824L9.00866 4.78176H7.4685V3.78944C7.4685 3.33922 7.59369 3.03199 8.23915 3.03199H9.06264V1.64114C8.66399 1.59884 8.26332 1.57833 7.86244 1.5797C6.67545 1.5797 5.86287 2.30441 5.86287 3.63554V4.78176H4.52026V6.33684H5.86287V10.3371H0.920815C0.768512 10.3371 0.622448 10.2766 0.514754 10.1689C0.40706 10.0612 0.346558 9.91517 0.346558 9.76287V0.574746C0.346558 0.422443 0.40706 0.276379 0.514754 0.168684C0.622448 0.0609902 0.768512 0.000488281 0.920815 0.000488281H10.1089C10.2612 0.000488281 10.4073 0.0609902 10.515 0.168684C10.6227 0.276379 10.6832 0.422443 10.6832 0.574746V9.76287C10.6832 9.91517 10.6227 10.0612 10.515 10.1689C10.4073 10.2766 10.2612 10.3371 10.1089 10.3371H7.4685Z" fill="white"/>
</svg>
