<svg width="30" height="30" viewBox="0 0 30 30" fill="none" xmlns="http://www.w3.org/2000/svg">
<path d="M11.7324 17.7324L11.7262 17.7385L11.7202 17.7448C11.2648 18.2163 11.0128 18.8478 11.0185 19.5033C11.0242 20.1588 11.2871 20.7858 11.7507 21.2493L12.4578 20.5422L11.7507 21.2493C12.2142 21.7129 12.8412 21.9758 13.4967 21.9815C14.1522 21.9872 14.7837 21.7352 15.2552 21.2798L15.2615 21.2738L15.2676 21.2676L19.7676 16.7676L19.7677 16.7675C20.2364 16.2987 20.4997 15.6629 20.4997 15C20.4997 14.3371 20.2364 13.7013 19.7677 13.2325L19.7676 13.2324L15.2676 8.73239L15.2615 8.72625L15.2552 8.72021C14.7837 8.26482 14.1522 8.01283 13.4967 8.01853C12.8412 8.02422 12.2142 8.28714 11.7507 8.75066L12.4578 9.45777L11.7507 8.75067C11.2871 9.21419 11.0242 9.84122 11.0185 10.4967C11.0128 11.1522 11.2648 11.7837 11.7202 12.2552L11.7262 12.2615L11.7324 12.2676L14.4648 15L11.7324 17.7324ZM29 15C29 22.7322 22.7322 29 15 29C7.26778 29 1 22.7322 1 15C1 7.26778 7.26778 1 15 1C22.7322 1 29 7.26778 29 15Z" stroke="#D0B6F7" stroke-width="2"/>
</svg>
