<svg width="30" height="30" viewBox="0 0 30 30" fill="none" xmlns="http://www.w3.org/2000/svg">
<path d="M18.2676 12.2676L18.2738 12.2615L18.2798 12.2552C18.7352 11.7837 18.9872 11.1522 18.9815 10.4967C18.9758 9.84122 18.7129 9.21419 18.2493 8.75067L17.5422 9.45777L18.2493 8.75067C17.7858 8.28714 17.1588 8.02422 16.5033 8.01853C15.8478 8.01283 15.2163 8.26482 14.7448 8.72021L14.7385 8.72625L14.7324 8.73239L10.2324 13.2324L10.2323 13.2325C9.76361 13.7013 9.50032 14.3371 9.50032 15C9.50032 15.6629 9.76361 16.2987 10.2323 16.7675L10.2324 16.7676L14.7324 21.2676L14.7385 21.2738L14.7448 21.2798C15.2163 21.7352 15.8478 21.9872 16.5033 21.9815C17.1588 21.9758 17.7858 21.7129 18.2493 21.2493L17.5422 20.5422L18.2493 21.2493C18.7129 20.7858 18.9758 20.1588 18.9815 19.5033C18.9872 18.8478 18.7352 18.2163 18.2798 17.7448L18.2738 17.7385L18.2676 17.7324L15.5352 15L18.2676 12.2676ZM1 15C1 7.26779 7.26779 1 15 1C22.7322 1 29 7.26779 29 15C29 22.7322 22.7322 29 15 29C7.26779 29 1 22.7322 1 15Z" stroke="#D0B6F7" stroke-width="2"/>
</svg>
