<svg width="28" height="31" viewBox="0 0 28 31" fill="none" xmlns="http://www.w3.org/2000/svg">
<path fill-rule="evenodd" clip-rule="evenodd" d="M14.5027 16.3452C14.345 16.3135 14.1869 16.296 14.1869 16.296L14.2666 15.084L14.8347 15.4027L15.375 15.3611L15.8322 15.3888L16.4834 15.2087L16.8713 15.1394L17.4117 15.0009L17.0237 14.7515C17.0237 14.7515 17.7996 14.7653 17.9243 14.7653C18.049 14.7653 18.3954 14.5991 18.3954 14.5991L18.6448 14.2111L17.7858 14.0587L17.4671 13.934C18.0444 13.583 18.6771 13.3983 19.1989 12.881C19.7358 12.3083 20.0094 11.6733 20.2381 10.9967L20.1929 10.5548C20.1045 10.534 19.9907 10.5258 19.9288 10.5955C19.8179 10.7202 19.8318 10.7549 19.7625 10.8103C19.6933 10.8657 19.6171 10.4431 19.4785 10.2977C19.3399 10.1522 19.1737 9.97898 19.1737 9.97898C19.1737 9.97898 18.7026 10.3323 18.6541 10.4223C18.6056 10.5124 18.5225 10.6856 18.5225 10.6856C18.5225 10.6856 18.2454 10.2214 18.1969 10.1522C18.1484 10.0829 17.9891 9.93048 17.9891 9.93048L17.5249 10.3323L17.3378 10.5401L17.2755 10.644C17.2755 10.644 16.6936 9.93742 16.6243 9.88892C16.555 9.84042 15.7999 10.7895 15.7722 10.8658C15.7445 10.942 15.3566 10.4986 15.3566 10.4986L15.2665 10.2077L15.7584 9.6881L18.751 9.73661C18.751 9.73661 18.9381 9.63963 18.9173 9.53572C18.8965 9.43182 19.3122 9.68119 19.3745 9.50108C19.4574 9.26151 19.6112 9.53257 19.6542 9.17665C19.6542 9.17665 19.8628 9.08209 19.9944 9.02667C20.1261 8.97125 20.3824 9.08209 20.521 8.91583C20.6595 8.74957 20.9782 8.87428 21.0198 8.58331C21.0613 8.29236 21.477 8.11224 21.477 8.11224C21.477 8.11224 21.7541 8.01527 21.8233 7.69659C21.8926 7.37792 22.5715 7.51647 22.5992 7.10082C22.6269 6.68518 23.0703 6.82373 23.0703 6.82373C23.0703 6.82373 23.7076 6.33883 23.9154 6.03401C24.1233 5.7292 24.2895 5.46593 24.0401 5.53522C23.7908 5.60449 23.7353 5.78462 23.1673 5.97859C22.5992 6.17255 21.7264 6.11713 21.7264 6.11713L20.2023 6.08942H18.1795C18.1795 6.08942 17.9994 6.02015 17.8054 6.14484C17.6114 6.26955 17.1681 6.47737 17.1681 6.47737L17.0018 6.69905L16.6554 6.82374L16.2813 7.12855C16.2813 7.12855 16.0181 7.04542 16.032 6.92073C16.0458 6.79603 16.3922 6.80989 16.4892 6.6852C16.5862 6.56049 16.697 6.2557 16.697 6.2557C16.697 6.2557 16.8771 6.21415 16.9048 6.03402C16.9325 5.85389 17.0711 5.81233 17.0711 5.81233C17.0711 5.81233 17.1819 5.68762 17.1819 5.5768C17.1819 5.46596 17.3238 5.50408 17.3238 5.50408C17.3238 5.50408 17.5143 5.5283 17.4415 5.37244C17.3688 5.21656 17.1263 4.80436 17.1263 4.80436L17.1748 4.47185L17.0016 3.93843C17.0016 3.93843 17.4102 3.16253 17.334 2.9755C17.2578 2.78847 16.9322 2.53215 16.9115 2.49058C16.8907 2.44902 16.8491 2.20655 16.8491 2.20655L16.4611 2.0403C16.4611 2.0403 16.8906 1.92252 16.7382 1.68006C16.5858 1.43759 16.1563 1.07738 16.1563 1.07738L16.0038 0.91111L16.2047 0.793352C16.2047 0.793352 15.9553 0.370774 15.8306 0.308435C15.7059 0.246081 15.3873 0.61324 15.3873 0.61324L15.2695 0.814126L15.3803 0.924965C15.3803 0.924965 15.415 1.12585 15.2695 1.18821C15.124 1.25056 14.9023 1.38909 14.8677 1.45838C14.8331 1.52765 14.7222 1.70777 14.7707 1.76319C14.8192 1.8186 14.9993 1.97105 14.9993 1.97105C14.9993 1.97105 15.0339 2.06804 14.9716 2.08883C14.9092 2.10962 14.7152 2.23431 14.6667 2.13039C14.6182 2.02647 14.542 1.82557 14.5698 1.70088C14.5975 1.57619 14.5975 1.57618 14.5975 1.57618C14.5975 1.57618 14.7152 1.39607 14.5421 1.2783C14.3689 1.16053 14.2927 1.2229 14.2372 1.02891C14.1818 0.834932 14.1957 0.65482 14.1957 0.65482C14.1957 0.65482 14.3896 0.322306 14.2165 0.197613C14.1042 0.116796 13.9835 0.0537435 13.8576 0C13.7489 0.049089 13.6445 0.106091 13.5465 0.176621C13.3734 0.301329 13.5673 0.633828 13.5673 0.633828C13.5673 0.633828 13.5812 0.81394 13.5258 1.00792C13.4703 1.2019 13.3941 1.13953 13.2209 1.25731C13.0478 1.37508 13.1655 1.55519 13.1655 1.55519C13.1655 1.55519 13.1655 1.55519 13.1932 1.67989C13.2209 1.80458 13.1447 2.00548 13.0962 2.1094C13.0477 2.21332 12.8538 2.08861 12.7914 2.06784C12.7291 2.04705 12.7637 1.95006 12.7637 1.95006C12.7637 1.95006 12.9438 1.79761 12.9923 1.74219C13.0408 1.68677 12.9299 1.50666 12.8953 1.43739C12.8606 1.36812 12.639 1.22957 12.4935 1.16721C12.348 1.10486 12.3827 0.903973 12.3827 0.903973L12.4935 0.793135L12.3757 0.592248C12.3757 0.592248 12.0571 0.22509 11.9324 0.287444C11.8077 0.349798 11.5583 0.77236 11.5583 0.77236L11.7592 0.890118L11.6067 1.05639C11.6067 1.05639 11.1771 1.41661 11.0247 1.65907C10.8723 1.90153 11.3018 2.0193 11.3018 2.0193L10.9139 2.18556C10.9139 2.18556 10.8723 2.42803 10.8515 2.46959C10.8307 2.51116 10.5052 2.76748 10.429 2.95451C10.3527 3.14154 10.7614 3.91744 10.7614 3.91744L10.5882 4.45085L10.6367 4.78337C10.6367 4.78337 10.3942 5.19557 10.3215 5.35145C10.2487 5.50732 10.4392 5.48309 10.4392 5.48309C10.4392 5.48309 10.5811 5.44498 10.5811 5.55581C10.5811 5.66665 10.6919 5.79134 10.6919 5.79134C10.6919 5.79134 10.8305 5.8329 10.8582 6.01303C10.8859 6.19316 11.066 6.23471 11.066 6.23471C11.066 6.23471 11.1768 6.5395 11.2738 6.6642C11.3708 6.78891 11.7172 6.77506 11.731 6.89973C11.7449 7.02443 11.4816 7.10756 11.4816 7.10756L11.1075 6.80275L10.7612 6.67806L10.5949 6.45638C10.5949 6.45638 10.1516 6.24856 9.95759 6.12385C9.76362 5.99914 9.58349 6.06843 9.58349 6.06843H7.56067L6.03663 6.09614C6.03663 6.09614 5.16376 6.15156 4.59571 5.9576C4.02767 5.76363 3.97223 5.5835 3.72285 5.51423C3.47346 5.44495 3.63972 5.70821 3.84754 6.01301C4.05536 6.31782 4.6927 6.80274 4.6927 6.80274C4.6927 6.80274 5.13605 6.66419 5.16376 7.07983C5.19147 7.49547 5.87037 7.35693 5.93964 7.6756C6.0089 7.99428 6.28603 8.09124 6.28603 8.09124C6.28603 8.09124 6.70167 8.27137 6.74323 8.56232C6.7848 8.85327 7.10347 8.72858 7.24201 8.89484C7.38055 9.06109 7.63692 8.95024 7.76855 9.00568C7.90016 9.06109 8.10882 9.15566 8.10882 9.15566C8.15178 9.51158 8.30555 9.24052 8.38848 9.48009C8.45083 9.6602 8.86647 9.41083 8.84568 9.51473C8.82489 9.61864 9.01196 9.71562 9.01196 9.71562L12.0046 9.6671L12.4965 10.1867L12.4064 10.4776C12.4064 10.4776 12.0185 10.921 11.9908 10.8448C11.9631 10.7686 11.208 9.81943 11.1387 9.86793C11.0694 9.91643 10.4875 10.623 10.4875 10.623L10.4252 10.5191L10.2381 10.3113L9.77391 9.90949C9.77391 9.90949 9.61457 10.0619 9.56608 10.1312C9.5176 10.2004 9.24049 10.6646 9.24049 10.6646C9.24049 10.6646 9.15736 10.4914 9.10886 10.4013C9.06036 10.3113 8.5893 9.95799 8.5893 9.95799C8.5893 9.95799 8.42304 10.1312 8.2845 10.2767C8.14593 10.4221 8.06974 10.8447 8.00048 10.7893C7.93122 10.7339 7.94506 10.6992 7.83422 10.5745C7.77232 10.5048 7.65849 10.513 7.57008 10.5338L7.52493 10.9758C7.77432 11.7147 7.98213 12.2735 8.56406 12.86C9.08592 13.2942 9.662 13.5917 10.2959 13.913L9.97723 14.0377L9.11823 14.1901L9.36762 14.5781C9.36762 14.5781 9.71399 14.7443 9.83868 14.7443C9.96339 14.7443 10.7392 14.7305 10.7392 14.7305L10.3513 14.9799L10.8917 15.1184L11.2796 15.1877L11.9308 15.3678L12.388 15.3401L12.9283 15.3817L13.4964 15.063C13.5396 15.0387 13.5191 16.2617 13.5191 16.2617C13.5191 16.2617 13.3892 16.3179 13.2638 16.3817C13.4731 16.5659 13.6677 16.7851 13.8621 17.0394C14.0697 16.768 14.2772 16.5366 14.5027 16.3451L14.5027 16.3452Z" fill="white"/>
<path fill-rule="evenodd" clip-rule="evenodd" d="M2.32605 16.2053L2.20299 16.2695L0.898217 16.9491L0.767334 17.0173L0.265552 17.2787L0 17.417C0.0952767 18.0648 0.232319 18.6986 0.408227 19.3154C1.71287 23.8898 5.15545 27.5288 9.55212 29.0186L9.86228 29.1155L10.1394 29.1848L10.1252 29.199L9.82072 29.5035C9.99158 29.582 10.1625 29.6605 10.3333 29.739C12.4989 30.459 14.8796 30.7146 17.6524 29.739L18.165 29.5035L17.8631 29.2016L17.8463 29.1848L18.1234 29.1155L18.561 28.9788C22.8699 27.476 26.2452 23.9034 27.5598 19.4167C27.7515 18.7624 27.8994 18.0886 28 17.399L27.7211 17.2562L27.6053 17.1969L25.7829 16.2639L25.7353 16.2395V13.6276L23.3719 12.2119C23.1048 12.0049 22.7712 11.8818 22.4093 11.8818C21.5318 11.8818 20.8205 12.6045 20.8205 13.4959C20.8205 14.3874 21.5318 15.11 22.4093 15.11C22.6471 15.11 22.8727 15.0568 23.0753 14.9616V16.0385C23.0753 16.7699 23.6738 17.3684 24.4053 17.3684H25.4965C25.4067 17.8802 25.2853 18.3807 25.1343 18.8676C23.8986 22.8521 20.6836 25.9304 16.6741 26.8936L16.6271 26.9256C16.5738 26.9823 16.3266 27.2554 16.2677 27.5137C16.2573 27.5596 16.2497 27.6038 16.2444 27.6456C16.2162 27.8681 16.2517 28.0246 16.2517 28.0246L15.1732 28.0541L15.382 28.4016L14.1063 28.3648L13.905 28.3629L12.5887 28.3997L12.7975 28.0522L11.719 28.0228C11.719 28.0228 11.7544 27.8663 11.7263 27.6437C11.721 27.6019 11.7134 27.5578 11.703 27.5119C11.6456 27.2603 11.4097 26.9947 11.3482 26.9287L11.3481 26.9286L11.3481 26.9286L11.348 26.9285L11.3478 26.9283L11.3476 26.9281L11.3474 26.9278L11.3471 26.9276L11.3468 26.9272L11.3465 26.9269C11.3398 26.9199 11.3165 26.8953 11.3192 26.8959L11.3206 26.8958C6.72138 25.793 3.31258 21.9645 2.50163 17.3684H3.65608C4.38757 17.3684 4.98605 16.77 4.98605 16.0385V14.9617C5.18863 15.0568 5.41423 15.11 5.65211 15.11C6.52955 15.11 7.24084 14.3874 7.24084 13.496C7.24084 12.6045 6.52955 11.8819 5.65211 11.8819C5.29015 11.8819 4.95651 12.0049 4.68938 12.212L2.32606 13.6276V16.2054L2.32605 16.2053ZM12.6923 29.688V28.7589H13.0311L13.2281 29.4544L13.4246 28.7589H13.7674V29.747V29.91H13.4447V29.738C13.3867 29.7357 13.3288 29.7331 13.271 29.7301L13.2206 29.91H13.0345L12.9765 29.7117C12.9191 29.7075 12.8617 29.7029 12.8044 29.698V29.91H12.6923V29.688V29.688ZM13.9415 29.7488C13.9225 29.7066 13.913 29.657 13.913 29.6C13.913 29.5821 13.9147 29.56 13.9179 29.5335L14.0786 29.4982C14.066 29.547 14.0597 29.5893 14.0597 29.6253C14.0597 29.6751 14.0696 29.7162 14.0896 29.7486C14.2247 29.7478 14.3595 29.745 14.4937 29.7402C14.4989 29.7239 14.5015 29.7055 14.5015 29.6851C14.5015 29.6086 14.4232 29.5413 14.2665 29.4835C14.0401 29.4004 13.9268 29.2675 13.9268 29.0848C13.9268 28.9813 13.9645 28.8982 14.0401 28.8349C14.1158 28.7716 14.215 28.74 14.3381 28.74C14.5909 28.74 14.7175 28.8539 14.7175 29.082L14.5625 29.1107C14.5691 29.0796 14.5722 29.0538 14.5722 29.0328C14.5722 28.8984 14.4911 28.8314 14.3292 28.8314C14.2012 28.8314 14.1374 28.8775 14.1374 28.9698C14.1374 29.0388 14.209 29.0981 14.3519 29.1476C14.6277 29.2425 14.7655 29.3831 14.7655 29.5692C14.7655 29.6293 14.7537 29.6829 14.7302 29.7299C14.711 29.7682 14.684 29.8022 14.6493 29.8318C14.5717 29.8977 14.4687 29.9308 14.3401 29.9308C14.1289 29.9308 13.996 29.8702 13.9415 29.7488V29.7488ZM14.878 29.7214C14.8661 29.6855 14.8602 29.6451 14.8602 29.6C14.8602 29.5821 14.8619 29.56 14.865 29.5335L15.0258 29.4982C15.0132 29.547 15.0069 29.5893 15.0069 29.6253C15.0069 29.6578 15.0111 29.6867 15.0196 29.7118C15.163 29.7013 15.3059 29.6886 15.4481 29.6738C15.4407 29.602 15.3626 29.5384 15.2137 29.4835C14.9873 29.4004 14.874 29.2675 14.874 29.0848C14.874 28.9813 14.9117 28.8982 14.9873 28.8349C15.0629 28.7716 15.1622 28.74 15.2853 28.74C15.5381 28.74 15.6647 28.8539 15.6647 29.082L15.5096 29.1107C15.5163 29.0796 15.5194 29.0538 15.5194 29.0328C15.5194 28.8984 15.4383 28.8314 15.2764 28.8314C15.1484 28.8314 15.0845 28.8775 15.0845 28.9698C15.0845 29.0388 15.1562 29.0981 15.2991 29.1476C15.5749 29.2425 15.7127 29.3831 15.7127 29.5692C15.7127 29.5956 15.7104 29.6207 15.7059 29.6445C15.6917 29.7193 15.6552 29.7817 15.5965 29.8318C15.5189 29.8977 15.4159 29.9308 15.2873 29.9308C15.0607 29.9308 14.9243 29.861 14.878 29.7214L14.878 29.7214ZM2.20299 16.2695L2.203 16.2699L2.20412 16.3242L2.203 16.2702L2.20299 16.2694V16.2695ZM2.20412 16.3242L1.00923 16.896L0.898217 16.9491L2.20412 16.3242ZM0.265552 17.2787L0.265863 17.2858L0.337169 18.9081L0.265552 17.2787Z" fill="white"/>
<path d="M13.8619 17.0392C14.5664 16.1179 15.2708 15.6572 16.6797 15.6572C18.235 15.6572 19.4974 16.4827 19.4974 17.4999C19.4974 19.3426 16.6797 21.1853 13.862 23.028C11.0442 21.1853 8.22656 19.3426 8.22656 17.4999C8.22656 16.4828 9.48888 15.6572 11.0443 15.6572C12.4531 15.6572 13.1576 16.1179 13.862 17.0392H13.8619Z" fill="white"/>
</svg>
