<svg width="24" height="17" viewBox="0 0 24 17" fill="none" xmlns="http://www.w3.org/2000/svg">
<path d="M3.42857 0H6.85714V3.5445C6.39924 3.38352 5.90472 3.35446 5.43086 3.46071C4.95699 3.56695 4.52317 3.80414 4.17964 4.14481C3.83611 4.48548 3.59692 4.91568 3.48979 5.3856C3.38265 5.85551 3.41195 6.34591 3.57429 6.8H0V3.4C0 2.49826 0.361224 1.63346 1.00421 0.995837C1.64719 0.358213 2.51926 0 3.42857 0ZM8.57143 9.7019L10.536 11.6518C10.6969 11.8114 10.9152 11.9011 11.1429 11.9011C11.3705 11.9011 11.5888 11.8114 11.7497 11.6518C11.9107 11.4922 12.0011 11.2757 12.0011 11.05C12.0011 10.8243 11.9107 10.6078 11.7497 10.4482L9.78343 8.5H24V13.6C24 14.5017 23.6388 15.3665 22.9958 16.0042C22.3528 16.6418 21.4807 17 20.5714 17H8.57143V9.7019ZM5.64514 8.5L3.67886 10.4482C3.51791 10.6078 3.42749 10.8243 3.42749 11.05C3.42749 11.2757 3.51791 11.4922 3.67886 11.6518C3.83981 11.8114 4.0581 11.9011 4.28571 11.9011C4.51333 11.9011 4.73162 11.8114 4.89257 11.6518L6.85714 9.7019V17H3.42857C2.51926 17 1.64719 16.6418 1.00421 16.0042C0.361224 15.3665 0 14.5017 0 13.6V8.5H5.64514ZM11.8543 6.8C12.0166 6.34591 12.0459 5.85551 11.9388 5.3856C11.8316 4.91568 11.5925 4.48548 11.2489 4.14481C10.9054 3.80414 10.4716 3.56695 9.99772 3.46071C9.52385 3.35446 9.02933 3.38352 8.57143 3.5445V0H20.5714C21.4807 0 22.3528 0.358213 22.9958 0.995837C23.6388 1.63346 24 2.49826 24 3.4V6.8H11.8543ZM8.57143 5.95V6.8H9.42857C9.5981 6.8 9.76382 6.75015 9.90477 6.65675C10.0457 6.56335 10.1556 6.4306 10.2205 6.27528C10.2853 6.11996 10.3023 5.94906 10.2692 5.78417C10.2362 5.61929 10.1545 5.46783 10.0347 5.34896C9.91479 5.23008 9.76206 5.14913 9.59579 5.11633C9.42952 5.08354 9.25718 5.10037 9.10056 5.1647C8.94393 5.22904 8.81007 5.33798 8.71588 5.47777C8.6217 5.61755 8.57143 5.78189 8.57143 5.95ZM6.85714 5.95V6.8H6C5.83047 6.8 5.66475 6.75015 5.5238 6.65675C5.38284 6.56335 5.27298 6.4306 5.2081 6.27528C5.14323 6.11996 5.12625 5.94906 5.15933 5.78417C5.1924 5.61929 5.27403 5.46783 5.39391 5.34896C5.51378 5.23008 5.66651 5.14913 5.83278 5.11633C5.99905 5.08354 6.17139 5.10037 6.32801 5.1647C6.48464 5.22904 6.6185 5.33798 6.71269 5.47777C6.80687 5.61755 6.85714 5.78189 6.85714 5.95Z" fill="white"/>
</svg>
