<svg width="82" height="82" viewBox="0 0 82 82" fill="none" xmlns="http://www.w3.org/2000/svg">
<path d="M41 0C32.891 0 24.9641 2.40461 18.2216 6.90974C11.4792 11.4149 6.22415 17.8182 3.12096 25.31C0.0177646 32.8017 -0.794172 41.0455 0.787822 48.9987C2.36982 56.9519 6.27469 64.2574 12.0086 69.9914C17.7426 75.7253 25.0481 79.6302 33.0013 81.2122C40.9545 82.7942 49.1983 81.9822 56.69 78.879C64.1818 75.7758 70.5851 70.5208 75.0903 63.7784C79.5954 57.0359 82 49.109 82 41C82 35.6158 80.9395 30.2843 78.8791 25.31C76.8186 20.3356 73.7986 15.8158 69.9914 12.0086C66.1842 8.20142 61.6644 5.18138 56.69 3.12094C51.7157 1.0605 46.3842 0 41 0ZM42.4 52.25C38.4446 55.2166 32.8 52.3943 32.8 47.45V34.55C32.8 29.6057 38.4446 26.7834 42.4 29.75L51 36.2C54.2 38.6 54.2 43.4 51 45.8L42.4 52.25Z" fill="#EFEFEF"/>
</svg>
