<svg width="13" height="12" viewBox="0 0 13 12" fill="none" xmlns="http://www.w3.org/2000/svg">
<path d="M1.62347 4.44564H11.7575M1.62347 7.89128H11.7575M1.26154 6.16846C1.26154 6.84719 1.40196 7.51928 1.67479 8.14634C1.94762 8.77341 2.34752 9.34318 2.85164 9.82311C3.35577 10.303 3.95425 10.6838 4.61292 10.9435C5.2716 11.2032 5.97756 11.3369 6.6905 11.3369C7.40344 11.3369 8.1094 11.2032 8.76807 10.9435C9.42675 10.6838 10.0252 10.303 10.5294 9.82311C11.0335 9.34318 11.4334 8.77341 11.7062 8.14634C11.979 7.51928 12.1195 6.84719 12.1195 6.16846C12.1195 4.7977 11.5475 3.48308 10.5294 2.51381C9.51123 1.54453 8.13035 1 6.6905 1C5.25065 1 3.86977 1.54453 2.85164 2.51381C1.83351 3.48308 1.26154 4.7977 1.26154 6.16846Z" stroke="white" stroke-linecap="round" stroke-linejoin="round"/>
<path d="M6.38993 1C5.37372 2.55031 4.83496 4.34104 4.83496 6.16846C4.83496 7.99587 5.37372 9.7866 6.38993 11.3369M6.99315 1C8.00937 2.55031 8.54812 4.34104 8.54812 6.16846C8.54812 7.99587 8.00937 9.7866 6.99315 11.3369" stroke="white" stroke-linecap="round" stroke-linejoin="round"/>
</svg>
